<svg width="174" height="32" viewBox="0 0 174 32" fill="none" xmlns="http://www.w3.org/2000/svg">
<path d="M77.38 9.96V12.7H71.66V15.66H75.94V18.32H71.66V24H68.24V9.96H77.38ZM92.9084 24.14C91.5884 24.14 90.3751 23.8333 89.2684 23.22C88.1751 22.6067 87.3017 21.7533 86.6484 20.66C86.0084 19.5533 85.6884 18.3133 85.6884 16.94C85.6884 15.5667 86.0084 14.3333 86.6484 13.24C87.3017 12.1467 88.1751 11.2933 89.2684 10.68C90.3751 10.0667 91.5884 9.76 92.9084 9.76C94.2284 9.76 95.4351 10.0667 96.5284 10.68C97.6351 11.2933 98.5017 12.1467 99.1284 13.24C99.7684 14.3333 100.088 15.5667 100.088 16.94C100.088 18.3133 99.7684 19.5533 99.1284 20.66C98.4884 21.7533 97.6217 22.6067 96.5284 23.22C95.4351 23.8333 94.2284 24.14 92.9084 24.14ZM92.9084 21.02C94.0284 21.02 94.9217 20.6467 95.5884 19.9C96.2684 19.1533 96.6084 18.1667 96.6084 16.94C96.6084 15.7 96.2684 14.7133 95.5884 13.98C94.9217 13.2333 94.0284 12.86 92.9084 12.86C91.7751 12.86 90.8684 13.2267 90.1884 13.96C89.5217 14.6933 89.1884 15.6867 89.1884 16.94C89.1884 18.18 89.5217 19.1733 90.1884 19.92C90.8684 20.6533 91.7751 21.02 92.9084 21.02ZM112.502 21.36H116.982V24H109.082V9.96H112.502V21.36ZM129.124 9.96V24H125.704V9.96H129.124ZM145.333 24.14C144.013 24.14 142.8 23.8333 141.693 23.22C140.6 22.6067 139.727 21.7533 139.073 20.66C138.433 19.5533 138.113 18.3133 138.113 16.94C138.113 15.5667 138.433 14.3333 139.073 13.24C139.727 12.1467 140.6 11.2933 141.693 10.68C142.8 10.0667 144.013 9.76 145.333 9.76C146.653 9.76 147.86 10.0667 148.953 10.68C150.06 11.2933 150.927 12.1467 151.553 13.24C152.193 14.3333 152.513 15.5667 152.513 16.94C152.513 18.3133 152.193 19.5533 151.553 20.66C150.913 21.7533 150.047 22.6067 148.953 23.22C147.86 23.8333 146.653 24.14 145.333 24.14ZM145.333 21.02C146.453 21.02 147.347 20.6467 148.013 19.9C148.693 19.1533 149.033 18.1667 149.033 16.94C149.033 15.7 148.693 14.7133 148.013 13.98C147.347 13.2333 146.453 12.86 145.333 12.86C144.2 12.86 143.293 13.2267 142.613 13.96C141.947 14.6933 141.613 15.6867 141.613 16.94C141.613 18.18 141.947 19.1733 142.613 19.92C143.293 20.6533 144.2 21.02 145.333 21.02Z" fill="#111029"/>
<path d="M163.107 24.16C162.507 24.16 162.014 23.9867 161.627 23.64C161.254 23.28 161.067 22.84 161.067 22.32C161.067 21.7867 161.254 21.34 161.627 20.98C162.014 20.62 162.507 20.44 163.107 20.44C163.694 20.44 164.174 20.62 164.547 20.98C164.934 21.34 165.127 21.7867 165.127 22.32C165.127 22.84 164.934 23.28 164.547 23.64C164.174 23.9867 163.694 24.16 163.107 24.16Z" fill="#FF6800"/>
<rect x="16" width="32" height="16" transform="rotate(90 16 0)" fill="#FFBDBD"/>
<circle cx="32" cy="16" r="16" fill="#4C40F7"/>
</svg>
